<?xml version="1.0" encoding="UTF-8"?>
<svg width="2605px" height="2634px" viewBox="0 0 2605 2634" version="1.1" xmlns="http://www.w3.org/2000/svg" xmlns:xlink="http://www.w3.org/1999/xlink">
    <!-- Generator: Sketch 64 (93537) - https://sketch.com -->
    <title>14</title>
    <desc>Created with Sketch.</desc>
    <g id="Page-1" stroke="none" stroke-width="1" fill="none" fill-rule="evenodd">
        <g id="14" transform="translate(4.000000, 4.000000)">
            <circle id="Oval" stroke="#000000" stroke-width="8" cx="2101.19" cy="1250.18" r="5.33102"></circle>
            <circle id="Oval" stroke="#000000" stroke-width="8" cx="983.63" cy="1250.18" r="5.33102"></circle>
            <circle id="Oval" stroke="#000000" stroke-width="8" cx="312.401" cy="2047.77" r="5.33102"></circle>
            <circle id="Oval" stroke="#000000" stroke-width="8" cx="321.732" cy="167.044" r="5.33102"></circle>
            <circle id="Oval" stroke="#000000" stroke-width="8" cx="1785.79" cy="432.938" r="5.33102"></circle>
            <circle id="Oval" stroke="#000000" stroke-width="8" cx="1069.59" cy="2177.1" r="5.33102"></circle>
            <line x1="2390.02" y1="594.561" x2="2419.38" y2="615.914" id="Path" stroke="#000000" stroke-width="8" stroke-linecap="round"></line>
            <path d="M533.041,1726.69 C516.152,1750.08 494.333,1789.29 492.692,1820.44 M674.087,1996.37 C664.98,1996.91 656.5,1996.76 648.609,1996.02 M492.83,1829.51 C493.139,1832.94 493.758,1836.23 494.729,1839.33 M496.69,1844.36 C498.319,1847.78 500.472,1850.92 503.215,1853.71 M505.946,1856.21 C510.086,1859.62 515.304,1862.39 521.757,1864.35 C579.53,1881.96 622.182,1823.54 636.287,1792.14 C646.205,1767.9 645.878,1730.75 605.256,1753.77 C564.635,1776.79 551.471,1852.51 549.966,1887.48 C549.838,1913.86 561.179,1957.5 599.902,1980.83 M607.849,1985.14 C609.706,1986.04 611.618,1986.89 613.586,1987.7 M617.959,1989.38 C621.353,1990.61 624.903,1991.7 628.614,1992.63 M633.07,1993.67 C636.738,1994.45 640.556,1995.1 644.529,1995.58" id="Shape" stroke="#000000" stroke-width="8" stroke-linecap="round"></path>
            <path d="M2089.1,442.27 C2056.3,487.703 2013.93,563.85 2010.74,624.348 M2363.04,966.03 C2345.35,967.07 2328.88,966.79 2313.55,965.35 M2011.01,641.962 C2011.61,648.623 2012.81,655.007 2014.7,661.038 M2018.5,670.795 C2021.67,677.444 2025.85,683.541 2031.18,688.963 M2036.48,693.819 C2044.52,700.445 2054.66,705.812 2067.19,709.631 C2179.39,743.817 2262.23,630.372 2289.62,569.376 C2308.89,522.306 2308.25,450.159 2229.36,494.865 C2150.46,539.572 2124.9,686.62 2121.97,754.556 C2121.73,805.776 2143.75,890.54 2218.96,935.85 M2234.39,944.21 C2238,945.96 2241.71,947.62 2245.53,949.19 M2254.03,952.46 C2260.62,954.84 2267.51,956.95 2274.72,958.77 M2283.38,960.79 C2290.5,962.31 2297.91,963.55 2305.63,964.5" id="Shape" stroke="#3BB7AB" stroke-width="8" stroke-linecap="round"></path>
            <path d="M1948.75,1393.37 C1966.94,1355.78 2034.59,1303.17 2159.71,1393.37 C2284.82,1483.57 2367.02,1430.95 2392.48,1393.37" id="Path" stroke="#000000" stroke-width="8" stroke-linecap="round"></path>
            <path d="M2196.61,1583.13 C2203.87,1568.11 2230.9,1547.09 2280.89,1583.13 C2330.87,1619.16 2363.72,1598.14 2373.89,1583.13" id="Path" stroke="#000000" stroke-width="8" stroke-linecap="round"></path>
            <line x1="968.95" y1="1572.45" x2="998.31" y2="1593.8" id="Path" stroke="#000000" stroke-width="8" stroke-linecap="round"></line>
            <line x1="1114.01" y1="300.795" x2="1143.37" y2="322.148" id="Path" stroke="#000000" stroke-width="8" stroke-linecap="round"></line>
            <line x1="1318.86" y1="24.309" x2="1350.5" y2="6.52" id="Path" stroke="#000000" stroke-width="8" stroke-linecap="round"></line>
            <line x1="883.08" y1="2411.63" x2="912.44" y2="2432.98" id="Path" stroke="#000000" stroke-width="8" stroke-linecap="round"></line>
            <line x1="86.552" y1="1550.27" x2="56.763" y2="1571.02" id="Path" stroke="#000000" stroke-width="8" stroke-linecap="round"></line>
            <line x1="1800.68" y1="2316.24" x2="1770.89" y2="2336.99" id="Path" stroke="#000000" stroke-width="8" stroke-linecap="round"></line>
            <line x1="2546.13" y1="1807.38" x2="2516.34" y2="1828.13" id="Path" stroke="#000000" stroke-width="8" stroke-linecap="round"></line>
            <line x1="202.227" y1="661.006" x2="181.176" y2="631.428" id="Path" stroke="#000000" stroke-width="8" stroke-linecap="round"></line>
            <line x1="2562.39" y1="289.314" x2="2596.18" y2="276.039" id="Path" stroke="#000000" stroke-width="8" stroke-linecap="round"></line>
            <line x1="2417.82" y1="0.184" x2="2437.57" y2="30.646" id="Path" stroke="#000000" stroke-width="8" stroke-linecap="round"></line>
            <line x1="56.5" y1="2351.62" x2="76.249" y2="2382.08" id="Path" stroke="#000000" stroke-width="8" stroke-linecap="round"></line>
            <polygon id="Path" fill="#000000" fill-rule="nonzero" points="1566.94 2523.98 1652.23 2523.98 1609.17 2285.31 1448.56 2285.31 1467.65 2345.77 1122.69 2523.98 1521.12 2523.98 1559.3 2471.79"></polygon>
            <path d="M1564.92,2102.11 L1609.17,2285.31 M1387.77,2110.97 L1448.56,2285.31 M1448.56,2285.31 L1467.65,2345.77 L1122.69,2523.98 L1521.12,2523.98 L1559.3,2471.79 L1566.94,2523.98 L1652.23,2523.98 L1609.17,2285.31 M1448.56,2285.31 L1609.17,2285.31" id="Shape" stroke="#000000" stroke-width="8" stroke-linecap="round"></path>
            <polygon id="Path" fill="#000000" fill-rule="nonzero" points="2200.17 2139.68 2257.6 2076.63 2052.16 1947.75 1944.01 2066.49 2001.57 2093.09 1901.03 2468.12 2169.32 2173.56 2156.45 2110.19"></polygon>
            <path d="M1949.75,1890.09 L2052.16,1947.75 M1845.4,2023.12 L1944.01,2066.49 M1944.01,2066.49 L2001.57,2093.09 L1901.03,2468.12 L2169.32,2173.56 L2156.45,2110.19 L2200.17,2139.68 L2257.6,2076.63 L2052.16,1947.75 M1944.01,2066.49 L2052.16,1947.75" id="Shape" stroke="#000000" stroke-width="8" stroke-linecap="round"></path>
            <path d="M1502.08,1250.04 L1471.57,1271.95 L1394.82,1434.95 C1387.82,1450.94 1373.06,1451.86 1375.34,1438.18 C1368.54,1449.43 1354.46,1464.23 1342.91,1442.74 C1339.33,1452.83 1324.76,1459.45 1316.48,1445 C1315.62,1443.5 1314.02,1439.22 1314.46,1434.1 C1314.91,1428.98 1318.32,1414.27 1319.97,1407.56 L1298.25,1436.38 C1291.53,1445.31 1271.49,1440.22 1278.67,1421.63 L1340.07,1305.04 L1280.76,1336.24 C1268.89,1341.31 1246.61,1330.84 1264.88,1309.79 C1272.74,1299.34 1355.22,1221.54 1395.48,1183.94 L1437.75,1162.92" id="Path" stroke="#000000" stroke-width="8"></path>
            <path d="M1375.21,1438.88 L1407.34,1350.15 M1342.58,1443.79 L1377.09,1347.39 M1317.77,1411.19 L1352.73,1350.59" id="Shape" stroke="#000000" stroke-width="8" stroke-linecap="round"></path>
            <path d="M1271.84,590.555 L1282.8,636.082 L1302.35,631.375 M1199.19,624.083 L1206.5,654.453 L1186.19,659.343" id="Shape" stroke="#000000" stroke-width="8" stroke-linecap="round"></path>
            <path d="M1273.6,604.837 L1269.99,589.821 L1275.8,576.066 C1221.62,538.74 1190.78,502.385 1182.13,488.873 C1172.08,502.828 1158.68,513.252 1153.24,516.72 C1151.34,524.473 1151.54,534.096 1151.87,537.937 C1154.49,558.196 1167.58,602.707 1198.97,618.688 C1230.36,634.669 1256.35,610.562 1265.42,596.511 C1264.31,602.075 1261.85,612.515 1255.98,620.85 C1243.02,639.259 1211.74,645.233 1202.78,643.073 L1198.3,624.44 L1119.49,631.131 C1118.32,617.569 1137.67,607.679 1133.63,585.037 C1115.29,482.371 1159.34,429.848 1216.13,433.319 C1257.9,435.873 1286.16,472.498 1324.29,510.658 C1350.92,537.311 1389.24,537.936 1394.48,570.37 L1273.6,604.837 Z" id="Path" fill="#000000" fill-rule="nonzero"></path>
            <path d="M1151.42,532.574 C1160.79,531.13 1171.96,534.174 1178.41,544.661 C1187.11,558.829 1187.04,578.807 1176.29,593.007 C1177.55,593.154 1189.99,591.012 1199.33,580.741" id="Path" stroke="#000000" stroke-width="8" stroke-linecap="round"></path>
            <path d="M1200.16,529.531 C1205.88,525.612 1220,521.099 1230.78,534.389" id="Path" stroke="#000000" stroke-width="8" stroke-linecap="round"></path>
            <path d="M1201.5,602.622 C1205.37,602.962 1214.3,601.604 1219.02,593.447" id="Path" stroke="#000000" stroke-width="8" stroke-linecap="round"></path>
            <line x1="0.651" y1="2625.34" x2="2516.34" y2="2625.34" id="Path" stroke="#000000" stroke-width="8" stroke-linecap="round"></line>
            <polygon id="Path" fill="#000000" fill-rule="nonzero" points="1264.96 507.924 1183.35 560.309 1239.6 555.898"></polygon>
            <polygon id="Path" fill="#000000" fill-rule="nonzero" points="1091.62 561.842 1188.54 558.319 1139.82 586.778"></polygon>
            <path d="M1230.57,530.051 L1236.31,556.119 L1230.57,556.555 L1225.21,533.543 L1230.57,530.051 Z M1243.2,521.961 L1244.79,546.042 L1241.4,552.506 L1235.55,526.908 L1243.2,521.961 Z" id="Combined-Shape" fill="#FFFFFF" fill-rule="nonzero"></path>
            <polygon id="Path" fill="#FFFFFF" fill-rule="nonzero" points="1132.46 560.361 1138.8 560.127 1147.61 582.169 1142.65 585.083"></polygon>
            <polygon id="Path" fill="#FFFFFF" fill-rule="nonzero" points="1117.4 560.909 1126.57 560.546 1136.41 585.017 1129.94 581.641"></polygon>
            <path d="M1189.69,1041.75 C1179.26,1173.17 1160.08,1501.66 1166.34,1720.69 C1172.6,1939.71 1254.47,2133.19 1294.63,2202.54 C1300.88,2164.48 1336.24,2093.34 1427.6,2113.37 C1541.81,2138.4 1566.84,2094.6 1598.13,2080.52 C1623.16,2069.25 1651.32,2075.82 1662.27,2080.52 L1458.89,1720.69 L1458.89,1409.36 C1471.93,1505.31 1518.03,1729.14 1598.13,1856.8 C1678.23,1984.46 1749.36,2081.04 1774.92,2113.37 C1766.57,2093.55 1772.73,2046.1 1864.09,2014.81 C1978.3,1975.7 1896.94,1899.04 1981.43,1866.18 C2028.99,1849.91 2055.48,1842.72 2062.78,1841.15 L1810.9,1626.82 L1497.54,923.69" id="Path" stroke="#000000" stroke-width="8"></path>
            <path d="M1511.01,1114.98 L1683.95,1620.81 L1997.71,1860.19 M1416.04,1051.19 C1440.14,1078.6 1503.49,1130.71 1564.16,1119.94" id="Shape" stroke="#000000" stroke-width="8" stroke-linecap="round"></path>
            <polygon id="Path" stroke="#000000" stroke-width="8" points="537.563 1047.95 304.831 1061.73 516.479 1412.86 729.75 1360.96"></polygon>
            <path d="M777.553,1289.37 L756.771,1287.98 L701.826,1313.87 M800.136,1182.39 L754.162,1171.67 C719.163,1173.8 660.595,1177.6 619.367,1180.86" id="Shape" stroke="#000000" stroke-width="8"></path>
            <path d="M1288.59,750.888 L1197.78,652.378 C1180.64,655.89 1155.45,663.639 1118.1,672.669 C1045.04,691.961 1011.2,761.492 1003.84,791.933 L953.05,1114.65 L732.942,1158.26 L771.935,1309.62 C812.81,1302.26 915.7,1283.45 1000.25,1267.03 C1084.8,1250.62 1111.07,1208.2 1113.64,1189.05 L1155.2,955.6 L1184.95,1050.01 L1502.54,923.79 L1478.43,862.22 L1586.17,982.28 L1408.14,1153.13 L1512.8,1272.16 C1744.3,1129.33 1755.66,1000.24 1732.4,953.55 C1708.11,903.27 1647.33,779.824 1598.49,688.293 C1549.64,596.762 1462.52,589.955 1425.07,597.993 L1298.86,627.751 L1288.59,750.888 Z" id="Path" fill="#3BB7AB" fill-rule="nonzero"></path>
            <line x1="1151.65" y1="938.5" x2="1131.03" y2="875.9" id="Path" stroke="#000000" stroke-width="8" stroke-linecap="round"></line>
            <line x1="1471.55" y1="842.3" x2="1450.93" y2="779.697" id="Path" stroke="#000000" stroke-width="8" stroke-linecap="round"></line>
            <line x1="1654.43" y1="952.6" x2="1594.81" y2="980.71" id="Path" stroke="#000000" stroke-width="8" stroke-linecap="round"></line>
            <polygon id="Path" fill="#000000" fill-rule="nonzero" points="415.926 1080.38 400.974 1056.02 471.879 1052.81 483.232 1072.28"></polygon>
            <circle id="Oval" fill="#000000" fill-rule="nonzero" cx="1554.57" cy="2565.96" r="59.3749"></circle>
            <circle id="Oval" fill="#000000" fill-rule="nonzero" transform="translate(2222.880000, 2177.100000) rotate(-47.672700) translate(-2222.880000, -2177.100000) " cx="2222.88" cy="2177.1" r="59.3749"></circle>
            <circle id="Oval" fill="#000000" fill-rule="nonzero" cx="1252.91" cy="2565.96" r="59.3749"></circle>
            <circle id="Oval" fill="#000000" fill-rule="nonzero" transform="translate(2019.760000, 2400.120000) rotate(-47.672700) translate(-2019.760000, -2400.120000) " cx="2019.76" cy="2400.12" r="59.3749"></circle>
            <path d="M469.644,738.77 L471.082,735.898 L468.587,733.873 C409.865,686.219 373.47,619.175 373.47,545.057 C373.47,401.381 510.621,283.854 681.216,283.854 C851.81,283.854 988.96,401.381 988.96,545.057 C988.96,688.734 851.81,806.261 681.216,806.261 C635.323,806.261 591.795,797.734 552.698,782.458 L550.561,781.623 L548.761,783.045 L381.101,915.59 L469.644,738.77 Z" id="Path" stroke="#3BB7AB" stroke-width="8"></path>
            <path d="M483.32,625.351 C508.306,560.732 567.325,440.541 603.511,476.728 C639.698,512.915 618.589,582.273 603.511,612.428 C622.897,587.011 660.376,548.068 655.206,595.627 C648.744,655.076 644.867,545.224 699.147,578.826 C753.426,612.428 721.117,648.614 699.147,625.351 C677.176,602.089 723.702,560.733 753.426,586.58 C783.151,612.428 792.198,646.029 819.337,612.428 C841.05,585.546 865.43,499.56 874.91,459.928" id="Path" stroke="#000000" stroke-width="8" stroke-linecap="round"></path>
        </g>
    </g>
</svg>