<?xml version="1.0" encoding="UTF-8"?>
<svg width="2655px" height="2691px" viewBox="0 0 2655 2691" version="1.1" xmlns="http://www.w3.org/2000/svg" xmlns:xlink="http://www.w3.org/1999/xlink">
    <!-- Generator: Sketch 64 (93537) - https://sketch.com -->
    <title>5</title>
    <desc>Created with Sketch.</desc>
    <g id="Page-1" stroke="none" stroke-width="1" fill="none" fill-rule="evenodd">
        <g id="5" transform="translate(4.000000, 4.000000)">
            <circle id="Oval" stroke="#000000" stroke-width="8" cx="1999.94" cy="1625.96" r="5.33102"></circle>
            <circle id="Oval" stroke="#000000" stroke-width="8" cx="1981.28" cy="40.153" r="5.33102"></circle>
            <circle id="Oval" stroke="#000000" stroke-width="8" cx="192.217" cy="1071.38" r="5.33102"></circle>
            <circle id="Oval" stroke="#000000" stroke-width="8" cx="528.135" cy="2447.28" r="5.33102"></circle>
            <circle id="Oval" stroke="#000000" stroke-width="8" cx="2198.53" cy="580.157" r="5.33102"></circle>
            <circle id="Oval" stroke="#000000" stroke-width="8" cx="2415.01" cy="2205.25" r="5.33102"></circle>
            <line x1="2557.73" y1="2450.49" x2="2587.09" y2="2471.85" id="Path" stroke="#000000" stroke-width="8" stroke-linecap="round"></line>
            <line x1="452.888" y1="49.484" x2="482.248" y2="70.838" id="Path" stroke="#000000" stroke-width="8" stroke-linecap="round"></line>
            <line x1="207.112" y1="1884.64" x2="177.323" y2="1905.39" id="Path" stroke="#000000" stroke-width="8" stroke-linecap="round"></line>
            <line x1="2204.09" y1="2578.38" x2="2174.3" y2="2599.13" id="Path" stroke="#000000" stroke-width="8" stroke-linecap="round"></line>
            <line x1="141.51" y1="480.953" x2="111.721" y2="501.703" id="Path" stroke="#000000" stroke-width="8" stroke-linecap="round"></line>
            <line x1="1620.26" y1="178.639" x2="1654.05" y2="165.363" id="Path" stroke="#000000" stroke-width="8" stroke-linecap="round"></line>
            <line x1="2361.82" y1="105.184" x2="2381.57" y2="135.646" id="Path" stroke="#000000" stroke-width="8" stroke-linecap="round"></line>
            <line x1="0.5" y1="2456.62" x2="20.248" y2="2487.08" id="Path" stroke="#000000" stroke-width="8" stroke-linecap="round"></line>
            <path d="M2126.96,744.943 C2117.62,793.385 2112.03,869.902 2131.92,919.39 M2539.94,1061.55 C2526.21,1068.95 2512.95,1074.83 2500.18,1079.36 M2138.66,933.36 C2141.61,938.45 2144.94,943.1 2148.69,947.22 M2155.34,953.6 C2160.34,957.73 2165.94,961.05 2172.2,963.4 M2178.24,965.31 C2187.11,967.62 2197.2,968.15 2208.62,966.55 C2310.89,952.23 2334.96,830.927 2334.21,772.064 C2332.13,727.336 2304.87,669.965 2258.46,734.921 C2212.04,799.878 2246.16,926.77 2269.03,982.1 C2287.83,1023.09 2336.85,1082.61 2413.71,1090.89 M2429.13,1091.84 C2432.66,1091.9 2436.24,1091.85 2439.87,1091.68 M2447.87,1091.15 C2454.01,1090.6 2460.3,1089.73 2466.73,1088.51 M2474.39,1086.91 C2480.64,1085.48 2487.02,1083.73 2493.53,1081.62" id="Shape" stroke="#000000" stroke-width="8" stroke-linecap="round"></path>
            <path d="M384.007,2173.64 C379.875,2195.08 377.4,2228.93 386.202,2250.83 M566.732,2313.73 C560.654,2317 554.789,2319.6 549.138,2321.61 M389.186,2257.01 C390.491,2259.26 391.964,2261.32 393.62,2263.14 M396.566,2265.96 C398.775,2267.79 401.253,2269.26 404.025,2270.3 M406.696,2271.15 C410.623,2272.17 415.084,2272.4 420.138,2271.69 C465.388,2265.36 476.037,2211.69 475.705,2185.64 C474.787,2165.85 462.723,2140.47 442.188,2169.21 C421.652,2197.95 436.75,2254.09 446.866,2278.57 C455.183,2296.71 476.875,2323.04 510.879,2326.71 M517.703,2327.13 C519.264,2327.15 520.848,2327.13 522.455,2327.06 M525.993,2326.82 C528.712,2326.58 531.494,2326.19 534.34,2325.66 M537.728,2324.95 C540.494,2324.32 543.318,2323.54 546.199,2322.61" id="Shape" stroke="#FECB4B" stroke-width="8" stroke-linecap="round"></path>
            <rect id="Rectangle" stroke="#000000" stroke-width="8" x="778.16" y="2561.62" width="477.736" height="117.083"></rect>
            <line x1="268.931" y1="2682.71" x2="2557.73" y2="2682.71" id="Path" stroke="#000000" stroke-width="8" stroke-linecap="round"></line>
            <path d="M1808.96,788.173 C1808.96,896.665 1759.76,1061.27 1685.51,1247.66 C1611.33,1433.86 1512.4,1641.23 1413.43,1835 C1314.47,2028.76 1215.51,2208.86 1141.28,2340.53 C1104.17,2406.36 1073.24,2460.08 1051.6,2497.34 C1040.77,2515.97 1032.27,2530.49 1026.47,2540.34 C1024.25,2544.12 1022.43,2547.21 1021.03,2549.59 C1019.62,2547.21 1017.8,2544.12 1015.58,2540.34 C1009.78,2530.49 1001.28,2515.97 990.46,2497.34 C968.81,2460.08 937.88,2406.36 900.77,2340.53 C826.54,2208.86 727.578,2028.76 628.618,1835 C529.652,1641.23 430.722,1433.86 356.543,1247.66 C282.292,1061.27 233.087,896.665 233.087,788.173 C233.087,353.006 585.859,0.2344 1021.03,0.2344 C1456.19,0.2344 1808.96,353.006 1808.96,788.173 Z" id="Path" stroke="#000000" stroke-width="8"></path>
            <path d="M1331.82,742.295 C1297.16,625.172 1188.76,539.719 1060.39,539.719 C904.08,539.719 777.36,666.435 777.36,822.748 C777.36,979.06 904.08,1105.78 1060.39,1105.78 C1191.75,1105.78 1302.2,1016.29 1334.13,894.961" id="Path" stroke="#000000" stroke-width="8"></path>
            <polygon id="Path" fill="#000000" fill-rule="nonzero" points="1097.96 2682.71 1643.54 2682.71 1629.38 2478.35 1440.77 2458.06 1118.38 2627.27"></polygon>
            <path d="M1443.3,2462.55 C1437.7,2430.32 1420.95,2367.08 1398.78,2372.03 C1376.61,2376.99 1419.22,2434.44 1443.3,2462.55 Z" id="Path" stroke="#000000" stroke-width="8"></path>
            <path d="M1442.21,2462.55 C1425.04,2434.7 1386.01,2382.2 1367.26,2395.03 C1348.51,2407.86 1409.42,2445.39 1442.21,2462.55 Z" id="Path" stroke="#000000" stroke-width="8"></path>
            <path d="M1439.47,2461.96 C1431.12,2448.3 1405.21,2427.41 1368.41,2453.12 C1331.61,2478.83 1305.31,2457.93 1296.76,2444.27" id="Path" stroke="#000000" stroke-width="8" stroke-linecap="round"></path>
            <path d="M1626.48,2482.1 L1622.66,2380.41 M1447.72,2385.69 L1441.85,2468.69 M1731.99,2107.3 L1731.99,2378.34 L1343.42,2385.69 L1366.92,2267.87 M1393.37,2135.22 L1366.92,2267.87 M1627.68,2262.29 L1540.3,2264.16 M1366.92,2267.87 L1540.3,2264.16 M1540.3,2264.16 L1562.31,2117.59" id="Shape" stroke="#000000" stroke-width="8" stroke-linecap="round"></path>
            <polygon id="Path" fill="#000000" fill-rule="nonzero" points="2446.99 2682.71 1901.41 2682.71 1915.57 2478.35 2104.18 2458.06 2426.57 2627.27"></polygon>
            <path d="M2101.65,2462.55 C2107.25,2430.32 2124,2367.08 2146.17,2372.03 C2168.35,2376.99 2125.73,2434.44 2101.65,2462.55 Z" id="Path" stroke="#000000" stroke-width="8"></path>
            <path d="M2102.74,2462.55 C2119.91,2434.7 2158.94,2382.2 2177.69,2395.03 C2196.44,2407.86 2135.54,2445.39 2102.74,2462.55 Z" id="Path" stroke="#000000" stroke-width="8"></path>
            <path d="M2105.48,2461.96 C2113.84,2448.3 2139.74,2427.41 2176.54,2453.12 C2213.34,2478.83 2239.64,2457.93 2248.19,2444.27" id="Path" stroke="#000000" stroke-width="8" stroke-linecap="round"></path>
            <path d="M1919.13,2485.63 L1922.29,2380.41 M2097.23,2385.69 L2103.1,2468.69 M1812.96,2107.3 L1812.96,2378.34 L2201.53,2385.69 L2178.04,2267.87 M2135.96,2069.9 L2178.04,2267.87 M1917.27,2262.29 L2004.65,2264.16 M2178.04,2267.87 L2004.65,2264.16 M2004.65,2264.16 L1977.48,2096.32" id="Shape" stroke="#000000" stroke-width="8" stroke-linecap="round"></path>
            <path d="M1162,990.51 L1135.88,915.654 L1247.41,843.307 L1224.3,733.783 C1220.05,717.205 1237.8,702.688 1251.43,725.243 C1251.43,706.238 1269.05,694.068 1281.41,717.205 C1281.41,698.631 1297.65,691.318 1309.3,711.816 C1318.37,727.756 1335.42,792.431 1344.29,818.054 L1327.29,717.205 C1324.51,698.376 1350.12,685.447 1356.43,713.184 C1356.43,716.401 1372.51,802.948 1380.55,845.82 L1299.16,930.22 L1299.16,945.8" id="Path" stroke="#000000" stroke-width="8"></path>
            <path d="M1250.66,724.519 L1275.5,822.747 M1280.47,713.816 L1309.13,812.044" id="Shape" stroke="#000000" stroke-width="8" stroke-linecap="round"></path>
            <path d="M1649.78,1055.79 C1660.52,1047.73 1667.93,1037.14 1672.07,1023.67 C1673.8,1018.02 1676.07,1012.37 1678.9,1006.81 C1689.1,986.77 1704.52,971.93 1721.04,964.06 C1737.56,956.19 1754.95,955.35 1769.57,962.79 C1784.19,970.23 1793.75,984.8 1797.11,1002.78 C1800.46,1020.77 1797.54,1041.97 1787.34,1062.01 C1777.13,1082.05 1761.72,1096.89 1745.2,1104.76 C1728.68,1112.63 1711.28,1113.47 1696.66,1106.03 C1680.8,1097.95 1670.88,1081.47 1668.41,1061.36 L1668,1058.07 L1664.7,1057.85 C1660.27,1057.56 1654.6,1056.68 1649.78,1055.79 Z" id="Path" stroke="#000000" stroke-width="8"></path>
            <path d="M1685.95,1017.78 C1691.17,1013.23 1704.68,1007.11 1716.92,1019.06" id="Path" stroke="#000000" stroke-width="8" stroke-linecap="round"></path>
            <path d="M1682.34,1084.73 C1686.2,1085.22 1695.18,1084.2 1700.2,1076.23" id="Path" stroke="#000000" stroke-width="8" stroke-linecap="round"></path>
            <path d="M1686.5,1035.09 C1690.99,1029.38 1702.97,1021.39 1714.92,1035.09" id="Path" stroke="#000000" stroke-width="8" stroke-linecap="round"></path>
            <circle id="Oval" fill="#000000" fill-rule="nonzero" cx="1700.71" cy="1034.37" r="5.80739"></circle>
            <path d="M1738.85,1055.31 C1740.91,1052.01 1747.35,1045.68 1756.71,1046.8" id="Path" stroke="#000000" stroke-width="8" stroke-linecap="round"></path>
            <path d="M1747.79,1048.95 C1750.32,1049.77 1754.27,1053.24 1749.9,1060.48" id="Path" stroke="#000000" stroke-width="8" stroke-linecap="round"></path>
            <path d="M2511.97,1751.72 L2512.13,1755.72 L2511.97,1751.72 Z M2477.21,1751.72 L2477.3,1747.72 L2467.72,1747.5 L2474.3,1754.47 L2477.21,1751.72 Z M2498.85,1774.62 L2495.94,1777.37 L2495.97,1777.4 L2496,1777.43 L2498.85,1774.62 Z M2504.52,1797 L2507.5,1799.67 L2504.52,1797 Z M2486.06,1799.37 L2483.92,1802.75 L2484.45,1803.08 L2485.06,1803.24 L2486.06,1799.37 Z M2460.87,1783.39 L2463.01,1780.01 L2458.25,1786.41 L2460.87,1783.39 Z M2484.28,1803.72 L2487.55,1801.42 L2487.27,1801.02 L2486.9,1800.7 L2484.28,1803.72 Z M2477.21,1830.13 L2477.9,1834.07 L2477.93,1834.06 L2477.97,1834.05 L2477.21,1830.13 Z M2452.18,1819.73 L2454.15,1816.24 L2449.75,1822.91 L2452.18,1819.73 Z M2464.28,1828.96 L2466.99,1826.01 L2466.85,1825.89 L2466.71,1825.78 L2464.28,1828.96 Z M2455.65,1856.43 L2455.39,1860.42 L2455.65,1856.43 Z M2430.97,1845.87 L2428.72,1849.18 L2428.93,1849.32 L2429.14,1849.43 L2430.97,1845.87 Z M2332.62,1810.09 L2336.52,1811.02 L2336.7,1810.25 L2336.58,1809.48 L2332.62,1810.09 Z M2309.45,1818.27 L2307.06,1821.48 L2307.22,1821.6 L2307.39,1821.7 L2309.45,1818.27 Z M2299.43,1803.42 L2295.66,1804.75 L2295.66,1804.76 L2295.66,1804.78 L2299.43,1803.42 Z M2267.26,1711.99 L2271.03,1710.66 L2270.68,1709.65 L2269.86,1708.95 L2267.26,1711.99 Z M2329.25,1788.12 L2325.28,1788.65 L2325.29,1788.69 L2325.3,1788.73 L2329.25,1788.12 Z M2341.36,1784.97 L2343.61,1781.66 L2342.11,1780.64 L2340.36,1781.1 L2341.36,1784.97 Z M2322.5,1706.75 C2322.21,1704.56 2320.2,1703.02 2318.01,1703.31 C2315.82,1703.6 2314.28,1705.61 2314.57,1707.8 L2322.5,1706.75 Z M2511.81,1747.72 C2505.44,1747.97 2496.83,1747.97 2489.77,1747.91 C2486.25,1747.88 2483.13,1747.83 2480.89,1747.79 C2479.77,1747.77 2478.87,1747.76 2478.26,1747.74 C2477.95,1747.74 2477.71,1747.73 2477.55,1747.73 C2477.47,1747.73 2477.4,1747.72 2477.36,1747.72 C2477.34,1747.72 2477.33,1747.72 2477.32,1747.72 C2477.31,1747.72 2477.31,1747.72 2477.31,1747.72 C2477.3,1747.72 2477.3,1747.72 2477.3,1747.72 C2477.3,1747.72 2477.3,1747.72 2477.3,1747.72 C2477.3,1747.72 2477.3,1747.72 2477.21,1751.72 C2477.12,1755.72 2477.12,1755.72 2477.12,1755.72 C2477.12,1755.72 2477.12,1755.72 2477.12,1755.72 C2477.12,1755.72 2477.12,1755.72 2477.12,1755.72 C2477.12,1755.72 2477.13,1755.72 2477.13,1755.72 C2477.15,1755.72 2477.16,1755.72 2477.18,1755.72 C2477.23,1755.72 2477.29,1755.72 2477.37,1755.73 C2477.53,1755.73 2477.78,1755.73 2478.09,1755.74 C2478.72,1755.75 2479.62,1755.77 2480.75,1755.79 C2483.01,1755.83 2486.15,1755.88 2489.7,1755.91 C2496.78,1755.97 2505.55,1755.97 2512.13,1755.72 L2511.81,1747.72 Z M2474.3,1754.47 L2495.94,1777.37 L2501.75,1771.87 L2480.12,1748.97 L2474.3,1754.47 Z M2496,1777.43 C2498.08,1779.54 2500.81,1782.75 2502.26,1786.12 C2503.65,1789.37 2503.61,1792.02 2501.53,1794.34 L2507.5,1799.67 C2512.4,1794.18 2511.71,1787.86 2509.61,1782.97 C2507.57,1778.21 2503.99,1774.14 2501.7,1771.81 L2496,1777.43 Z M2501.53,1794.34 C2499.51,1796.6 2497.1,1797.2 2494.51,1797.09 C2491.65,1796.96 2489.28,1796.07 2487.06,1795.5 L2485.06,1803.24 C2486.38,1803.58 2490.19,1804.91 2494.16,1805.08 C2498.39,1805.26 2503.44,1804.22 2507.5,1799.67 L2501.53,1794.34 Z M2488.21,1795.99 L2463.01,1780.01 L2458.73,1786.77 L2483.92,1802.75 L2488.21,1795.99 Z M2458.25,1786.41 L2481.66,1806.74 L2486.9,1800.7 L2463.49,1780.37 L2458.25,1786.41 Z M2481.01,1806.02 C2483.38,1809.4 2485.58,1814.26 2485.46,1818.26 C2485.4,1820.11 2484.86,1821.63 2483.73,1822.85 C2482.56,1824.11 2480.41,1825.44 2476.45,1826.2 L2477.97,1834.05 C2483.04,1833.08 2486.94,1831.15 2489.6,1828.29 C2492.29,1825.38 2493.36,1821.89 2493.46,1818.5 C2493.65,1811.99 2490.35,1805.39 2487.55,1801.42 L2481.01,1806.02 Z M2476.52,1826.19 C2476.69,1826.16 2476.56,1826.21 2475.94,1826.1 C2475.39,1826 2474.65,1825.81 2473.75,1825.52 C2471.93,1824.94 2469.71,1824.04 2467.31,1822.96 C2462.53,1820.8 2457.4,1818.08 2454.15,1816.24 L2450.21,1823.21 C2453.61,1825.13 2458.96,1827.97 2464.02,1830.25 C2466.55,1831.39 2469.08,1832.42 2471.3,1833.14 C2472.41,1833.49 2473.51,1833.79 2474.54,1833.98 C2475.51,1834.15 2476.72,1834.27 2477.9,1834.07 L2476.52,1826.19 Z M2449.75,1822.91 L2461.86,1832.14 L2466.71,1825.78 L2454.61,1816.55 L2449.75,1822.91 Z M2461.58,1831.91 C2465.3,1835.33 2466.89,1840.99 2465.88,1845.55 C2465.4,1847.75 2464.35,1849.51 2462.87,1850.68 C2461.42,1851.82 2459.21,1852.65 2455.9,1852.43 L2455.39,1860.42 C2460.36,1860.74 2464.58,1859.5 2467.81,1856.97 C2471,1854.47 2472.89,1850.95 2473.7,1847.27 C2475.29,1840.04 2472.91,1831.44 2466.99,1826.01 L2461.58,1831.91 Z M2455.9,1852.43 C2451.9,1852.18 2448.13,1850.75 2444.3,1848.78 C2442.39,1847.79 2440.52,1846.7 2438.6,1845.58 C2436.72,1844.47 2434.75,1843.32 2432.8,1842.31 L2429.14,1849.43 C2430.86,1850.31 2432.63,1851.35 2434.56,1852.48 C2436.45,1853.59 2438.5,1854.79 2440.64,1855.89 C2444.91,1858.1 2449.81,1860.06 2455.39,1860.42 L2455.9,1852.43 Z M2328.73,1809.16 C2328.11,1811.79 2326.45,1814.95 2323.91,1816.55 C2321.77,1817.89 2318.02,1818.74 2311.51,1814.84 L2307.39,1821.7 C2315.74,1826.7 2322.81,1826.68 2328.16,1823.32 C2333.11,1820.21 2335.61,1814.82 2336.52,1811.02 L2328.73,1809.16 Z M2311.84,1815.06 C2309.87,1813.6 2307.99,1811.22 2306.39,1808.6 C2304.82,1806.02 2303.71,1803.51 2303.19,1802.07 L2295.66,1804.78 C2296.36,1806.7 2297.7,1809.71 2299.56,1812.76 C2301.39,1815.77 2303.92,1819.14 2307.06,1821.48 L2311.84,1815.06 Z M2303.2,1802.09 L2271.03,1710.66 L2263.49,1713.32 L2295.66,1804.75 L2303.2,1802.09 Z M2269.86,1708.95 L2244.8,1687.5 L2239.6,1693.57 L2264.66,1715.03 L2269.86,1708.95 Z M2332.42,1598.06 L2425.8,1690.94 L2431.44,1685.26 L2338.06,1592.39 L2332.42,1598.06 Z M2519.57,1738.38 C2520.51,1742.76 2517.53,1747.5 2511.81,1747.72 L2512.13,1755.72 C2522.98,1755.29 2529.34,1745.76 2527.39,1736.69 L2519.57,1738.38 Z M2325.3,1788.73 L2328.67,1810.7 L2336.58,1809.48 L2333.2,1787.52 L2325.3,1788.73 Z M2433.22,1842.56 L2343.61,1781.66 L2339.11,1788.28 L2428.72,1849.18 L2433.22,1842.56 Z M2330.26,1792 L2342.37,1788.84 L2340.36,1781.1 L2328.24,1784.25 L2330.26,1792 Z M2333.21,1787.6 L2322.5,1706.75 L2314.57,1707.8 L2325.28,1788.65 L2333.21,1787.6 Z" id="Shape" fill="#000000" fill-rule="nonzero"></path>
            <line x1="2454.49" y1="1821.55" x2="2392.19" y2="1771.51" id="Path" stroke="#000000" stroke-width="8" stroke-linecap="round"></line>
            <line x1="2464.96" y1="1786.48" x2="2433.2" y2="1761.28" id="Path" stroke="#000000" stroke-width="8" stroke-linecap="round"></line>
            <line x1="2405.68" y1="1693.28" x2="2364.33" y2="1690.63" id="Path" stroke="#000000" stroke-width="8" stroke-linecap="round"></line>
            <path d="M2344.78,1708.07 C2344.12,1687.63 2332.94,1671.83 2328.68,1667.08" id="Path" stroke="#000000" stroke-width="8" stroke-linecap="round"></path>
            <path d="M1739.95,994.59 C1725.09,1000.1 1692.31,999.66 1678.81,999.11 C1687.79,974.28 1710.96,949.57 1724.92,939.64 C1751.04,921.07 1769.99,939.37 1773.95,947.23 C1776.53,945.42 1783.72,941.81 1791.9,941.81 C1826.28,938.97 1823.19,959.96 1817.35,970.81 C1850.57,986.66 1828.27,1013.3 1812.97,1024.63 C1819.37,1026.93 1829.2,1036.82 1817.35,1058.02 C1805.5,1079.21 1782.09,1086.18 1771.87,1087.02 C1767.02,1085.16 1756.08,1078.08 1751.04,1064.62 C1761.41,1061.88 1770.06,1054.59 1764.69,1046.3 C1758.85,1037.29 1742.1,1042.37 1735.77,1045.29 C1727.93,1028.43 1735.29,1004.47 1739.95,994.59 Z" id="Path" fill="#000000" fill-rule="nonzero"></path>
            <path d="M1681.54,1055.86 C1674.85,1053.95 1668.88,1058.73 1666.73,1061.36 C1667.21,1065.9 1668.3,1074.36 1668.88,1071.87 C1669.59,1068.77 1679.63,1069.48 1697.78,1069.72 C1712.31,1069.91 1712.75,1055.63 1711.16,1048.46 C1711.88,1054.19 1711.45,1065.85 1703.99,1066.61 C1694.68,1067.57 1689.9,1058.25 1681.54,1055.86 Z" id="Path" fill="#000000" fill-rule="nonzero"></path>
            <path d="M1060.39,1019.32 L1316.17,936.81 L1388.36,1275.04 C1388.36,1275.04 1547.8,1175.16 1588.64,1167.05 C1598.76,1165.05 1614.72,1162.8 1614.72,1162.8 L1680.92,1115.03 L1824.31,1101.17 L1802.14,1146.32 L1851.56,1146.32 C1913.65,1150.28 1965.51,1184.3 1983.67,1200.82 L2366.82,1600.47 L2198.37,1735.9 L2021.66,1494.78 L2214.88,2082.71 L1388.36,2145.46 L1521.36,1449.44 C1499.44,1458.38 1442.16,1482.64 1388.36,1508.18 C1291,1552.73 1233.66,1460.74 1217.16,1409.17 L1060.39,1019.32 Z" id="Path" fill="#FECB4B" fill-rule="nonzero"></path>
            <path d="M1792.54,1148.15 L1624.45,1163.68 M2014.52,1473.36 L1994.88,1416.72 M1975.24,1360.09 L1994.88,1416.72 M1994.88,1416.72 L2200.88,1644.19 M2174.39,1672.51 L2302.28,1551.01 M1529.44,1432.25 L1530.79,1423.19 M1550.45,1291.57 L1530.79,1423.19 M1530.79,1423.19 C1503.24,1431.99 1439.55,1449.61 1405.2,1449.61 C1362.27,1449.61 1330.29,1451.44 1302.89,1405.76 C1280.96,1369.22 1212.14,1182.86 1180.47,1094.25 M1114.7,1118.92 L1321.16,1046.75 M1861.88,1154.82 C1829.19,1199.19 1773.62,1302.35 1812.84,1360.09 C1861.88,1432.25 1987.96,1446.68 1957.61,1573.93 C1927.25,1701.18 1858.37,1766.56 1912.08,1865.79 C1938.95,1915.45 1979.53,1965.44 2002.06,2019.95 M1516.86,1600.28 C1525.45,1639.54 1558.98,1730.48 1624.45,1780.14 M1429.31,2068.91 L2147.48,2008.87" id="Shape" stroke="#000000" stroke-width="8" stroke-linecap="round"></path>
            <path d="M1153.65,540.959 L1284.44,703.226 C1285.07,701.846 1287.07,698.983 1290.03,698.57 L1153.65,540.959 Z" id="Path" fill="#000000" fill-rule="nonzero"></path>
            <polygon id="Path" fill="#000000" fill-rule="nonzero" points="1482.17 920.62 1371.15 792.324 1374.68 815.175 1431.03 885.081 1358.3 869.552 1343.79 883.685"></polygon>
            <polygon id="Path" fill="#000000" fill-rule="nonzero" points="1021.03 797.534 1230.44 853.432 1242.75 844.878"></polygon>
            <path d="M2197.17,1748.1 C2192.13,1754.38 2199.08,1766.42 2213.54,1774.45 C2207.88,1778.36 2203.33,1787.97 2213.54,1792.78 C2206.33,1798.28 2193.57,1808.24 2207.88,1818.21 M2197.17,1748.1 L2169.11,1776.16 L2177.02,1781.33 C2173.16,1789.68 2174.1,1793.22 2179.4,1798.28 L2172.57,1805.47 L2207.88,1818.21 M2197.17,1748.1 L2272.3,1728.69 M2207.88,1818.21 L2295.07,1796.2 M2319.13,1716.6 L2581.83,1648.77 L2601.3,1718.88 L2330.07,1787.36" id="Shape" stroke="#000000" stroke-width="8"></path>
            <path d="M2213.21,1774.46 L2281.68,1756.29 M2213.21,1793.32 L2288.66,1774.46 M2321.5,1745.81 L2571.61,1678.74 M2327.79,1767.47 L2571.61,1704.59" id="Shape" stroke="#000000" stroke-width="8"></path>
            <path d="M2145.89,1798.4 L2167.51,1774.89 L2176.5,1781.61 C2171.86,1789.34 2176.34,1796.02 2179.16,1798.4 L2173.24,1807.83 L2145.89,1798.4 Z" id="Path" fill="#000000" fill-rule="nonzero"></path>
            <polygon id="Path" fill="#000000" fill-rule="nonzero" points="2098.99 1670.19 2082.48 1626.44 2266.65 1713.48 2281.01 1755.9"></polygon>
            <polygon id="Path" fill="#000000" fill-rule="nonzero" points="2618.24 1877.4 2641.35 1918.67 2329.63 1775.48 2323.43 1736.32"></polygon>
            <polygon id="Path" stroke="#000000" stroke-width="8" points="2098.99 1670.19 2082.48 1626.44 2266.65 1713.48 2281.01 1755.9"></polygon>
            <polygon id="Path" stroke="#000000" stroke-width="8" points="2618.24 1877.4 2641.35 1918.67 2329.63 1775.48 2323.43 1736.32"></polygon>
        </g>
    </g>
</svg>